<svg width="9" height="14" viewBox="0 0 9 14" fill="none" xmlns="http://www.w3.org/2000/svg"><path d="M8.19254 7.44219L1.94254 13.6922C1.88447 13.7503 1.81553 13.7963 1.73966 13.8277C1.66379 13.8592 1.58247 13.8753 1.50035 13.8753C1.41823 13.8753 1.33691 13.8592 1.26104 13.8277C1.18517 13.7963 1.11623 13.7503 1.05816 13.6922C1.00009 13.6341 0.954028 13.5652 0.922601 13.4893C0.891175 13.4134 0.875 13.3321 0.875 13.25C0.875 13.1679 0.891175 13.0866 0.922601 13.0107C0.954028 12.9348 1.00009 12.8659 1.05816 12.8078L6.86675 7L1.05816 1.19219C0.940884 1.07491 0.875 0.915853 0.875 0.75C0.875 0.584148 0.940884 0.425088 1.05816 0.307813C1.17544 0.190537 1.3345 0.124653 1.50035 0.124653C1.6662 0.124653 1.82526 0.190537 1.94254 0.307813L8.19254 6.55781C8.25065 6.61586 8.29675 6.68479 8.3282 6.76066C8.35965 6.83654 8.37584 6.91787 8.37584 7C8.37584 7.08214 8.35965 7.16346 8.3282 7.23934C8.29675 7.31521 8.25065 7.38414 8.19254 7.44219Z" fill="currentColor"/></svg>